<?xml version="1.0" encoding="utf-8"?>
<!-- Generator: Adobe Illustrator 27.2.0, SVG Export Plug-In . SVG Version: 6.00 Build 0)  -->
<svg version="1.1" id="Layer_1" xmlns="http://www.w3.org/2000/svg" xmlns:xlink="http://www.w3.org/1999/xlink" x="0px" y="0px"
	 viewBox="0 0 360 360" style="enable-background:new 0 0 360 360;" xml:space="preserve">
<style type="text/css">
	.st0{fill:#231F20;}
	.st1{opacity:0.77;fill:#27AAE1;}
	.st2{fill:#FFE85C;}
	.st3{fill:#231F20;stroke:#000000;stroke-miterlimit:10;}
	.st4{fill:url(#SVGID_1_);}
</style>
<polygon class="st0" points="92.3,185.6 92.3,199.2 92.3,212.8 74.5,206 56.7,199.2 74.5,192.4 "/>
<path class="st1" d="M195.3,86c8.5,23-9.4,50.8-9.4,50.8s-31.6-9.5-40.1-32.5s-0.2-34.8,13.4-39.9C172.9,59.4,186.8,63,195.3,86z"/>
<path class="st1" d="M229.5,108.6c-10.8,22-43.3,28.2-43.3,28.2s-14.9-29.5-4.1-51.5c10.8-22,25-24.2,38.1-17.8
	C233.4,74,240.3,86.6,229.5,108.6z"/>
<g>
	<path class="st2" d="M98.8,193.7L98.8,193.7c0-18.6,6.3-35.7,16.9-49.5c-17.5,10.9-29.3,30.4-29.3,52.4v0
		c0,26.1,16.4,48.5,39.5,57.5C109.3,239.2,98.8,217.6,98.8,193.7z"/>
	<path class="st2" d="M162.6,193.7L162.6,193.7c0-23,9.7-43.9,25.3-58.7h-37.3c-15.5,14.8-25.3,35.7-25.3,58.7v0
		c0,26.3,12.7,49.8,32.2,64.6h37.3C175.2,243.4,162.6,220,162.6,193.7z"/>
	<path class="st0" d="M125.2,193.7L125.2,193.7c0-23,9.7-43.9,25.3-58.7h-2.3c-11.9,0-23,3.4-32.4,9.3
		c-10.6,13.7-16.9,30.9-16.9,49.5v0c0,23.9,10.5,45.5,27.1,60.5c6.9,2.7,14.4,4.2,22.2,4.2h9.2C137.9,243.4,125.2,220,125.2,193.7z"
		/>
	<path class="st0" d="M194.2,193.7L194.2,193.7c0-23,9.7-43.9,25.2-58.7c-0.4,0-0.9,0-1.3,0h-30.3c-15.5,14.8-25.3,35.7-25.3,58.7v0
		c0,26.3,12.7,49.8,32.2,64.6h23.4c2.6,0,5.1-0.2,7.6-0.5C206.6,242.9,194.2,219.7,194.2,193.7z"/>
	<path class="st2" d="M279.8,196.6L279.8,196.6c0-33.5-27.1-61-60.4-61.7c-15.5,14.8-25.2,35.7-25.2,58.7v0
		c0,26,12.4,49.2,31.5,64.1C256.1,254.1,279.8,228,279.8,196.6z"/>
</g>
<circle class="st3" cx="251" cy="178.4" r="7.1"/>
<radialGradient id="SVGID_1_" cx="240.1142" cy="198.5342" r="26.4982" gradientTransform="matrix(0.7282 0 0 0.4271 50.8767 114.3864)" gradientUnits="userSpaceOnUse">
	<stop  offset="1.851852e-02" style="stop-color:#FF4D95"/>
	<stop  offset="1" style="stop-color:#FFE85C"/>
</radialGradient>
<ellipse class="st4" cx="225.7" cy="199.2" rx="25.8" ry="17.1"/>
<g>
	<rect x="261.2" y="111.9" transform="matrix(0.7363 0.6767 -0.6767 0.7363 157.9149 -143.7703)" width="4.3" height="37.5"/>
	<circle cx="279.3" cy="113.4" r="10.3"/>
</g>
</svg>
