<?xml version="1.0" encoding="utf-8"?>
<!-- Generator: Adobe Illustrator 27.2.0, SVG Export Plug-In . SVG Version: 6.00 Build 0)  -->
<svg version="1.1" id="Layer_1" xmlns="http://www.w3.org/2000/svg" xmlns:xlink="http://www.w3.org/1999/xlink" x="0px" y="0px"
	 viewBox="0 0 360 360" style="enable-background:new 0 0 360 360;" xml:space="preserve">
<style type="text/css">
	.st0{fill:#006838;}
	.st1{fill:#F15A29;}
	.st2{fill:#F9ED32;}
	.st3{fill:#317529;}
</style>
<rect x="176" y="129.5" class="st0" width="8.3" height="230.5"/>
<g>
	<ellipse class="st1" cx="178.3" cy="51.5" rx="17.1" ry="46.3"/>
	<ellipse transform="matrix(0.7314 -0.682 0.682 0.7314 11.5898 170.1773)" class="st1" cx="221.8" cy="70.4" rx="46.3" ry="17.1"/>
	
		<ellipse transform="matrix(6.975397e-02 -0.9976 0.9976 6.975397e-02 106.2776 344.0811)" class="st1" cx="237.6" cy="115.1" rx="17.1" ry="46.3"/>
	
		<ellipse transform="matrix(0.7771 -0.6293 0.6293 0.7771 -50.8043 170.7438)" class="st1" cx="215.7" cy="157.1" rx="17.1" ry="46.3"/>
	
		<ellipse transform="matrix(0.1392 -0.9903 0.9903 0.1392 -21.7855 314.5578)" class="st1" cx="170" cy="169.8" rx="46.3" ry="17.1"/>
	
		<ellipse transform="matrix(0.8192 -0.5736 0.5736 0.8192 -59.7347 100.5578)" class="st1" cx="129.6" cy="145" rx="46.3" ry="17.1"/>
	
		<ellipse transform="matrix(0.2079 -0.9781 0.9781 0.2079 -1.2838 195.6611)" class="st1" cx="120.2" cy="98.6" rx="17.1" ry="46.3"/>
	<ellipse transform="matrix(0.8572 -0.515 0.515 0.8572 -9.8007 84.6401)" class="st1" cx="147.7" cy="60" rx="17.1" ry="46.3"/>
</g>
<circle class="st2" cx="178.3" cy="110.9" r="20.3"/>
<path class="st3" d="M158.1,237.9c13.9,9.3,17.8,27.6,17.8,27.6s-18.5,3.4-32.4-5.9c-13.9-9.3-17.8-27.6-17.8-27.6
	S144.3,228.6,158.1,237.9z"/>
<path class="st3" d="M231.5,288.8c-19.3,15.7-47.3,13.2-47.3,13.2s3.4-27.9,22.7-43.5c19.3-15.7,47.3-13.2,47.3-13.2
	S250.9,273.2,231.5,288.8z"/>
</svg>
