<?xml version="1.0" encoding="utf-8"?>
<!-- Generator: Adobe Illustrator 27.2.0, SVG Export Plug-In . SVG Version: 6.00 Build 0)  -->
<svg version="1.1" id="Layer_1" xmlns="http://www.w3.org/2000/svg" xmlns:xlink="http://www.w3.org/1999/xlink" x="0px" y="0px"
	 viewBox="0 0 7200 7200" style="enable-background:new 0 0 7200 7200;" xml:space="preserve">
<style type="text/css">
	.st0{fill:#682F00;}
	.st1{fill:#FFBD1A;}
	.st2{fill:#FFFFFF;}
	.st3{opacity:0.16;enable-background:new    ;}
</style>
<g>
	<path class="st0" d="M1643.3,5964.6c0,8.2,0,12.3,0,20.4v408.5c0,204.2,163.4,367.6,367.6,367.6h2736.9
		c204.2,0,367.6-163.4,367.6-367.6v-408.5c0-8.2,0-12.3,0-20.4c261.4-175.7,490.2-392.2,682.2-633.2H957
		C1153.1,5576.6,1381.8,5789,1643.3,5964.6z"/>
	<path class="st0" d="M5707.8,1573.3h8.2c269.6,0,490.2-220.6,490.2-490.2V932c0-269.6-220.6-490.2-490.2-490.2H1042.8
		c-269.6,0-490.2,220.6-490.2,490.2v151.1c0,269.6,220.6,490.2,490.2,490.2h8.2c-138.9,159.3-257.4,330.9-359.5,514.7h5379.9
		C5965.2,1904.2,5846.7,1732.6,5707.8,1573.3z"/>
	<path class="st1" d="M6067.3,2088H687.4c-232.8,420.8-367.6,902.8-367.6,1417.5c0,686.3,236.9,1319.4,637.3,1821.9h4840.7
		c396.2-502.5,637.3-1135.6,637.3-1821.9C6434.9,2994.9,6300.1,2512.8,6067.3,2088z"/>
</g>
<g>
	<g>
		<path class="st2" d="M883.5,2018.6c-343.1,927.3-527,2001.6-4.1,2900.3c126.6,216.5,294.1,408.5,494.3,563.7
			c32.7,24.5,143-24.5,94-61.3c-351.3-269.6-584.2-669.9-702.6-1094.8c-134.8-477.9-114.4-980.4-16.3-1466.5
			c61.3-294.1,151.1-580.1,253.3-857.8C1018.3,1961.4,899.8,1973.6,883.5,2018.6L883.5,2018.6z"/>
	</g>
</g>
<g>
	<g>
		<path class="st2" d="M3714.4,5907.5c314.5,44.9,637.3,16.3,939.5-81.7c24.5-8.2,57.2-28.6,49-57.2c-8.2-28.6-49-32.7-69.4-24.5
			c-281.9,89.9-584.2,118.5-878.3,77.6c-28.6-4.1-65.4,8.2-77.6,36.8C3665.3,5882.9,3689.8,5903.4,3714.4,5907.5L3714.4,5907.5z"/>
	</g>
</g>
<g>
	<g>
		<path class="st2" d="M1545.2,5633.8c24.5,24.5,53.1,53.1,77.6,77.6c8.2,8.2,20.4,12.3,32.7,12.3c8.2,0,16.3,0,24.5,0
			c8.2,0,16.3-4.1,24.5-8.2c12.3-4.1,24.5-12.3,32.7-24.5c4.1-8.2,8.2-20.4,0-28.6c-24.5-24.5-53.1-53.1-77.6-77.6
			c-8.2-8.2-20.4-12.3-32.7-12.3c-8.2,0-16.3,0-24.5,0c-8.2,0-16.3,4.1-24.5,8.2c-12.3,4.1-24.5,12.3-32.7,24.5
			C1541.1,5613.3,1537.1,5625.6,1545.2,5633.8L1545.2,5633.8z"/>
	</g>
</g>
<path class="st3" d="M5372.9,445.8c-159.3,24.5,98,216.5,98,576S5332,1463,5262.6,1516.1c-69.4,53.1,1834.2,2242.6-498.4,4321.9
	c0,294.1-16.3,931.4-16.3,931.4s375.8,16.3,367.6-449.3c-8.2-469.8-4.1-245.1,0-326.8c65.4-69.4,1217.3-870.1,1290.9-2091.5
	c73.5-1221.4-241-1715.7-694.4-2320.3c138.9-20.4,245.1-36.8,322.7-122.5c77.6-85.8,167.5-151.1,167.5-433s-49-306.4-118.5-404.4
	S5781.3,380.5,5372.9,445.8z"/>
<g>
	<path class="st1" d="M2644.1,319.2"/>
	<path class="st1" d="M2501.1,499c-77.6-73.5-36.8-122.5-265.5-130.7c-228.8-8.2-1192.8-28.6-1278.6,0
		c-85.8,28.6-339.1,482-208.3,747.5s494.3,151.1,408.5,453.4c-61.3,216.5,0,465.7,228.8,388.1c228.8-77.6,155.2-502.5,102.1-633.2
		c-102.1-265.5,249.2-576,465.7-228.8c175.7,285.9-224.7,559.6,12.3,719s359.5-167.5,335-437.1c-20.4-216.5,110.3-318.6,200.2-375.8
		C2644.1,911.5,2607.3,601.1,2501.1,499z"/>
	
		<ellipse transform="matrix(0.2669 -0.9637 0.9637 0.2669 9.2972 3666.8718)" class="st1" cx="2414.9" cy="1827.3" rx="143" ry="94"/>
	<g>
		<g>
			<path class="st2" d="M1108.1,413.2c-85.8,20.4-147.1,81.7-192,155.2s-73.5,159.3-94,241c-8.2,40.8,110.3,24.5,118.5-16.3
				c16.3-73.5,40.8-143,77.6-212.4c16.3-28.6,32.7-57.2,53.1-77.6c4.1-4.1,8.2-8.2,12.3-12.3c4.1-4.1,4.1-4.1,8.2-8.2
				c0,0,8.2-8.2,4.1-4.1c4.1,0,20.4-12.3,8.2-8.2c0,0,16.3-8.2,8.2-4.1c-8.2,4.1,8.2-4.1,8.2-4.1c16.3-4.1,57.2-20.4,53.1-44.9
				C1169.4,405,1124.5,409.1,1108.1,413.2L1108.1,413.2z"/>
		</g>
	</g>
	<g>
		<g>
			<path class="st2" d="M1206.2,1671.3c-12.3,32.7-12.3,65.4-8.2,98c4.1,28.6,20.4,57.2,36.8,77.6c8.2,12.3,20.4,16.3,32.7,16.3
				c16.3,4.1,32.7,0,44.9-8.2c12.3-8.2,24.5-16.3,28.6-28.6c4.1-12.3,4.1-24.5-4.1-32.7c-8.2-8.2-16.3-20.4-20.4-32.7
				c0,4.1,4.1,8.2,4.1,12.3c-8.2-16.3-12.3-36.8-16.3-53.1c0,4.1,0,8.2,0,12.3c0-16.3,0-32.7,4.1-49c0,4.1-4.1,8.2-4.1,12.3
				c0-4.1,0-4.1,4.1-8.2c4.1-12.3,4.1-24.5-4.1-32.7c-8.2-8.2-20.4-16.3-32.7-16.3c-16.3,0-32.7,0-44.9,8.2
				C1222.5,1650.9,1210.3,1659.1,1206.2,1671.3L1206.2,1671.3z"/>
		</g>
	</g>
	<g>
		<g>
			<path class="st2" d="M1769.9,895.2c4.1,0,8.2,4.1,12.3,8.2c-4.1,0-4.1-4.1-8.2-4.1c20.4,12.3,40.8,28.6,53.1,53.1
				c0-4.1-4.1-4.1-4.1-8.2c8.2,12.3,12.3,24.5,16.3,36.8c4.1,8.2,12.3,12.3,20.4,12.3c12.3,4.1,32.7,0,44.9-4.1
				c12.3-4.1,28.6-8.2,40.8-20.4c4.1-4.1,16.3-12.3,12.3-24.5c-16.3-44.9-49-85.8-94-106.2c-4.1-4.1-12.3-4.1-16.3-4.1
				c-8.2,0-12.3,0-20.4,0c-16.3,4.1-32.7,8.2-44.9,16.3c-4.1,4.1-8.2,4.1-12.3,8.2s-8.2,8.2-12.3,16.3c0,4.1,0,4.1,0,8.2
				C1757.7,887,1761.7,891.1,1769.9,895.2L1769.9,895.2z"/>
		</g>
	</g>
	<g>
		<g>
			<path class="st2" d="M1941.5,1699.9c-4.1,28.6,4.1,53.1,28.6,69.4c36.8,28.6,89.9,20.4,130.7,8.2c36.8-12.3,73.5-32.7,98-65.4
				c16.3-24.5,28.6-53.1,40.8-85.8c4.1-8.2-4.1-16.3-12.3-16.3c-12.3-4.1-28.6-4.1-36.8-4.1c-16.3,4.1-32.7,8.2-44.9,16.3
				c-8.2,4.1-20.4,12.3-24.5,20.4c-8.2,20.4-16.3,44.9-28.6,61.3c0-4.1,4.1-4.1,4.1-8.2c-4.1,8.2-12.3,16.3-20.4,24.5l-4.1,4.1
				l4.1-4.1c0,0-4.1,4.1-8.2,4.1c0,0-8.2,4.1,0,0c8.2-4.1,0,0-4.1,0c-8.2,4.1,4.1-4.1,4.1-4.1h-4.1c-4.1,0,0,0,8.2-4.1
				c-8.2,4.1,16.3,0,4.1,0c4.1,0,16.3,0,4.1,0c-4.1,0,12.3,0,4.1,0h-4.1c-4.1,0,0,0,4.1,0c-4.1-4.1-8.2-4.1-12.3-4.1
				c4.1,0,4.1,4.1,8.2,4.1c-8.2-4.1-16.3-12.3-20.4-20.4c0,4.1,4.1,4.1,4.1,8.2c-4.1-8.2-8.2-20.4-8.2-28.6c0,4.1,0,4.1,0,8.2
				c0-4.1,0-8.2,0-8.2c4.1-24.5-36.8-20.4-49-20.4c-16.3,4.1-32.7,8.2-44.9,16.3C1957.8,1683.6,1945.6,1691.8,1941.5,1699.9
				L1941.5,1699.9z"/>
		</g>
	</g>
	<path class="st1" d="M4903.1,396.8c-343.1,0-531-36.8-788.4,4.1c-261.4,44.9-134.8,518.8,53.1,706.7
		c187.9,187.9-49,416.7-32.7,535.1c16.3,163.4,65.4,269.6,245.1,281.9c318.6,16.3,416.7-167.5,363.6-657.7
		c-44.9-424.8,335-604.6,441.2-543.3c318.6,183.8,118.5,379.9,81.7,522.9c-32.7,138.9,81.7,224.7,208.3,208.3
		c114.4-12.3,228.8-81.7,167.5-322.7c-61.3-241-16.3-208.3,89.9-241c236.9-65.4,183.8-437.1-16.3-502.5
		C5515.8,319.2,5238,396.8,4903.1,396.8z"/>
	<g>
		<g>
			<path class="st2" d="M4237.2,449.9c-69.4-16.3-163.4,16.3-200.2,81.7c-28.6,53.1-32.7,126.6-28.6,183.8
				c4.1,61.3,24.5,118.5,57.2,171.6c16.3,24.5,32.7,49,53.1,69.4c24.5,24.5,49,44.9,57.2,77.6c8.2,28.6,126.6-4.1,118.5-32.7
				c-12.3-44.9-53.1-73.5-85.8-106.2c-32.7-40.8-57.2-85.8-69.4-134.8c-12.3-44.9-20.4-94-16.3-143c0-24.5,8.2-49,12.3-73.5
				c4.1-12.3,8.2-24.5,16.3-36.8c4.1-8.2,12.3-12.3,16.3-20.4c8.2-8.2,4.1-8.2-16.3,0c-20.4,0-24.5,4.1-12.3,8.2
				c24.5,8.2,61.3-4.1,81.7-16.3C4233.1,474.4,4261.7,454,4237.2,449.9L4237.2,449.9z"/>
		</g>
	</g>
	<g>
		<g>
			<path class="st2" d="M4184.1,1622.3c-12.3,49,0,102.1,28.6,143c32.7,44.9,85.8,69.4,138.9,73.5
				c126.6,16.3,249.2-44.9,326.8-147.1c16.3-24.5-12.3-32.7-32.7-32.7c-28.6,0-61.3,8.2-77.6,32.7c-24.5,32.7-49,57.2-81.7,73.5
				c8.2-4.1-8.2,4.1-8.2,4.1s-16.3,8.2-8.2,4.1c8.2-4.1-8.2,4.1-8.2,4.1c-16.3,4.1,12.3,0-8.2,0c0,0-16.3,0-12.3,0
				c4.1,0-8.2,0-12.3,0c-12.3,0-12.3,0-24.5-4.1c-73.5-16.3-122.5-94-102.1-167.5c8.2-24.5-36.8-28.6-49-24.5
				C4229.1,1585.6,4192.3,1597.8,4184.1,1622.3L4184.1,1622.3z"/>
		</g>
	</g>
	<g>
		<g>
			<path class="st2" d="M5622,478.5c20.4,12.3,36.8,24.5,53.1,40.8c16.3,20.4,16.3,44.9,12.3,69.4c-4.1,53.1-12.3,110.3-36.8,155.2
				c-12.3,20.4,12.3,28.6,28.6,28.6c16.3,0,32.7-4.1,44.9-8.2c12.3-4.1,24.5-12.3,32.7-20.4c32.7-57.2,40.9-114.4,49-179.7
				c4.1-32.7,0-57.2-20.4-85.8c-16.3-20.4-44.9-36.8-69.4-49c-8.2-4.1-28.6-4.1-36.8-4.1c-16.3,4.1-32.7,8.2-44.9,16.3
				C5617.9,449.9,5597.5,466.3,5622,478.5L5622,478.5z"/>
		</g>
	</g>
	<g>
		<g>
			<path class="st2" d="M5323.8,1197.5c-16.3,36.8-12.3,81.7,4.1,118.5c20.4,40.8,53.1,69.4,94,81.7c12.3,4.1,28.6,0,36.8,0
				c16.3-4.1,32.7-8.2,44.9-12.3c12.3-4.1,40.8-20.4,16.3-28.6h-4.1c4.1,0,4.1,0,0,0c-4.1,0-4.1-4.1-8.2-4.1
				c-4.1-4.1-12.3-4.1-16.3-8.2c-8.2-8.2-20.4-16.3-28.6-24.5l4.1,4.1c-28.6-32.7-40.9-73.5-32.7-118.5v4.1c0-8.2,4.1-20.4,8.2-28.6
				c8.2-20.4-40.8-12.3-49-12.3c-16.3,4.1-32.7,8.2-44.9,12.3C5340.2,1185.2,5327.9,1189.3,5323.8,1197.5L5323.8,1197.5z"/>
		</g>
	</g>
</g>
</svg>
