<?xml version="1.0" encoding="utf-8"?>
<!-- Generator: Adobe Illustrator 27.2.0, SVG Export Plug-In . SVG Version: 6.00 Build 0)  -->
<svg version="1.1" id="Layer_1" xmlns="http://www.w3.org/2000/svg" xmlns:xlink="http://www.w3.org/1999/xlink" x="0px" y="0px"
	 viewBox="0 0 360 360" style="enable-background:new 0 0 360 360;" xml:space="preserve">
<style type="text/css">
	.st0{fill:#682F00;}
	.st1{fill:#FFBD1A;}
	.st2{fill:#FFFFFF;}
	.st3{opacity:0.16;}
</style>
<g>
	<path class="st0" d="M130.1,217.5c0,0.2,0,0.3,0,0.5v10c0,5,4,9,9,9h67c5,0,9-4,9-9v-10c0-0.2,0-0.3,0-0.5
		c6.4-4.3,12-9.6,16.7-15.5H113.3C118.1,208,123.7,213.2,130.1,217.5z"/>
	<path class="st0" d="M229.6,110h0.2c6.6,0,12-5.4,12-12v-3.7c0-6.6-5.4-12-12-12H115.4c-6.6,0-12,5.4-12,12V98c0,6.6,5.4,12,12,12
		h0.2c-3.4,3.9-6.3,8.1-8.8,12.6h131.7C235.9,118.1,233,113.9,229.6,110z"/>
	<path class="st1" d="M238.4,122.6H106.7c-5.7,10.3-9,22.1-9,34.7c0,16.8,5.8,32.3,15.6,44.6h118.5c9.7-12.3,15.6-27.8,15.6-44.6
		C247.4,144.8,244.1,133,238.4,122.6z"/>
</g>
<g>
	<g>
		<path class="st2" d="M111.5,120.9c-8.4,22.7-12.9,49-0.1,71c3.1,5.3,7.2,10,12.1,13.8c0.8,0.6,3.5-0.6,2.3-1.5
			c-8.6-6.6-14.3-16.4-17.2-26.8c-3.3-11.7-2.8-24-0.4-35.9c1.5-7.2,3.7-14.2,6.2-21C114.8,119.5,111.9,119.8,111.5,120.9
			L111.5,120.9z"/>
	</g>
</g>
<g>
	<g>
		<path class="st2" d="M180.8,216.1c7.7,1.1,15.6,0.4,23-2c0.6-0.2,1.4-0.7,1.2-1.4c-0.2-0.7-1.2-0.8-1.7-0.6
			c-6.9,2.2-14.3,2.9-21.5,1.9c-0.7-0.1-1.6,0.2-1.9,0.9C179.6,215.5,180.2,216,180.8,216.1L180.8,216.1z"/>
	</g>
</g>
<g>
	<g>
		<path class="st2" d="M127.7,209.4c0.6,0.6,1.3,1.3,1.9,1.9c0.2,0.2,0.5,0.3,0.8,0.3c0.2,0,0.4,0,0.6,0c0.2,0,0.4-0.1,0.6-0.2
			c0.3-0.1,0.6-0.3,0.8-0.6c0.1-0.2,0.2-0.5,0-0.7c-0.6-0.6-1.3-1.3-1.9-1.9c-0.2-0.2-0.5-0.3-0.8-0.3c-0.2,0-0.4,0-0.6,0
			c-0.2,0-0.4,0.1-0.6,0.2c-0.3,0.1-0.6,0.3-0.8,0.6C127.6,208.9,127.5,209.2,127.7,209.4L127.7,209.4z"/>
	</g>
</g>
<path class="st3" d="M221.4,82.4c-3.9,0.6,2.4,5.3,2.4,14.1s-3.4,10.8-5.1,12.1c-1.7,1.3,44.9,54.9-12.2,105.8
	c0,7.2-0.4,22.8-0.4,22.8s9.2,0.4,9-11c-0.2-11.5-0.1-6,0-8c1.6-1.7,29.8-21.3,31.6-51.2c1.8-29.9-5.9-42-17-56.8
	c3.4-0.5,6-0.9,7.9-3c1.9-2.1,4.1-3.7,4.1-10.6c0-6.9-1.2-7.5-2.9-9.9S231.4,80.8,221.4,82.4z"/>
</svg>
