<?xml version="1.0" encoding="UTF-8"?><svg id="Layer_1" xmlns="http://www.w3.org/2000/svg" viewBox="0 0 1920 1080"><defs><style>.cls-1{fill:#f9c41c;}.cls-2{fill:#ffe85c;}.cls-3{fill:#fcf3b8;}</style></defs><rect class="cls-3" width="1920" height="1080"/><polygon class="cls-2" points="253.3 651.14 200.4 651.14 173.94 696.96 200.4 742.77 253.3 742.77 279.75 696.96 253.3 651.14"/><polygon class="cls-2" points="75.77 651.14 22.87 651.14 -3.58 696.96 22.87 742.77 75.77 742.77 102.22 696.96 75.77 651.14"/><polygon class="cls-1" points="163.2 703.78 110.29 703.78 83.84 749.59 110.29 795.41 163.2 795.41 189.65 749.59 163.2 703.78"/><polygon class="cls-2" points="435.39 651.14 382.49 651.14 356.04 696.96 382.49 742.77 435.39 742.77 461.84 696.96 435.39 651.14"/><polygon class="cls-2" points="617.49 651.14 564.59 651.14 538.14 696.96 564.59 742.77 617.49 742.77 643.94 696.96 617.49 651.14"/><polygon class="cls-1" points="527.39 703.78 474.49 703.78 448.04 749.59 474.49 795.41 527.39 795.41 553.84 749.59 527.39 703.78"/><polygon class="cls-2" points="709.49 703.78 656.59 703.78 630.14 749.59 656.59 795.41 709.49 795.41 735.94 749.59 709.49 703.78"/><polygon class="cls-2" points="979.56 651.14 926.66 651.14 900.21 696.96 926.66 742.77 979.56 742.77 1006.01 696.96 979.56 651.14"/><polygon class="cls-2" points="979.56 754.63 926.66 754.63 900.21 800.44 926.66 846.25 979.56 846.25 1006.01 800.44 979.56 754.63"/><polygon class="cls-2" points="889.46 703.78 836.56 703.78 810.11 749.59 836.56 795.41 889.46 795.41 915.91 749.59 889.46 703.78"/><polygon class="cls-2" points="253.3 754.63 200.4 754.63 173.94 800.44 200.4 846.25 253.3 846.25 279.75 800.44 253.3 754.63"/><polygon class="cls-2" points="163.2 807.26 110.29 807.26 83.84 853.07 110.29 898.89 163.2 898.89 189.65 853.07 163.2 807.26"/><polygon class="cls-2" points="435.39 754.63 382.49 754.63 356.04 800.44 382.49 846.25 435.39 846.25 461.84 800.44 435.39 754.63"/><polygon class="cls-2" points="345.29 807.26 292.39 807.26 265.94 853.07 292.39 898.89 345.29 898.89 371.74 853.07 345.29 807.26"/><polygon class="cls-2" points="617.49 754.63 564.59 754.63 538.14 800.44 564.59 846.25 617.49 846.25 643.94 800.44 617.49 754.63"/><polygon class="cls-2" points="527.39 807.26 474.49 807.26 448.04 853.07 474.49 898.89 527.39 898.89 553.84 853.07 527.39 807.26"/><polygon class="cls-2" points="799.59 754.63 746.69 754.63 720.24 800.44 746.69 846.25 799.59 846.25 826.04 800.44 799.59 754.63"/><polygon class="cls-2" points="709.49 807.26 656.59 807.26 630.14 853.07 656.59 898.89 709.49 898.89 735.94 853.07 709.49 807.26"/><polygon class="cls-1" points="889.46 807.26 836.56 807.26 810.11 853.07 836.56 898.89 889.46 898.89 915.91 853.07 889.46 807.26"/><polygon class="cls-2" points="253.3 858.11 200.4 858.11 173.94 903.92 200.4 949.74 253.3 949.74 279.75 903.92 253.3 858.11"/><polygon class="cls-2" points="75.77 858.11 22.87 858.11 -3.58 903.92 22.87 949.74 75.77 949.74 102.22 903.92 75.77 858.11"/><polygon class="cls-2" points="163.2 910.74 110.29 910.74 83.84 956.56 110.29 1002.37 163.2 1002.37 189.65 956.56 163.2 910.74"/><polygon class="cls-2" points="435.39 858.11 382.49 858.11 356.04 903.92 382.49 949.74 435.39 949.74 461.84 903.92 435.39 858.11"/><polygon class="cls-2" points="345.29 910.74 292.39 910.74 265.94 956.56 292.39 1002.37 345.29 1002.37 371.74 956.56 345.29 910.74"/><polygon class="cls-2" points="527.39 910.74 474.49 910.74 448.04 956.56 474.49 1002.37 527.39 1002.37 553.84 956.56 527.39 910.74"/><polygon class="cls-2" points="799.59 858.11 746.69 858.11 720.24 903.92 746.69 949.74 799.59 949.74 826.04 903.92 799.59 858.11"/><polygon class="cls-2" points="709.49 910.74 656.59 910.74 630.14 956.56 656.59 1002.37 709.49 1002.37 735.94 956.56 709.49 910.74"/><polygon class="cls-2" points="979.56 858.11 926.66 858.11 900.21 903.92 926.66 949.74 979.56 949.74 1006.01 903.92 979.56 858.11"/><polygon class="cls-2" points="889.46 910.74 836.56 910.74 810.11 956.56 836.56 1002.37 889.46 1002.37 915.91 956.56 889.46 910.74"/><polygon class="cls-2" points="253.3 961.59 200.4 961.59 173.94 1007.41 200.4 1053.22 253.3 1053.22 279.75 1007.41 253.3 961.59"/><polygon class="cls-2" points="75.77 961.59 22.87 961.59 -3.58 1007.41 22.87 1053.22 75.77 1053.22 102.22 1007.41 75.77 961.59"/><polygon class="cls-2" points="163.2 1014.23 110.29 1014.23 83.84 1060.04 110.29 1105.85 163.2 1105.85 189.65 1060.04 163.2 1014.23"/><polygon class="cls-2" points="435.39 961.59 382.49 961.59 356.04 1007.41 382.49 1053.22 435.39 1053.22 461.84 1007.41 435.39 961.59"/><polygon class="cls-2" points="345.29 1014.23 292.39 1014.23 265.94 1060.04 292.39 1105.85 345.29 1105.85 371.74 1060.04 345.29 1014.23"/><polygon class="cls-2" points="617.49 961.59 564.59 961.59 538.14 1007.41 564.59 1053.22 617.49 1053.22 643.94 1007.41 617.49 961.59"/><polygon class="cls-2" points="527.39 1014.23 474.49 1014.23 448.04 1060.04 474.49 1105.85 527.39 1105.85 553.84 1060.04 527.39 1014.23"/><polygon class="cls-1" points="799.59 961.59 746.69 961.59 720.24 1007.41 746.69 1053.22 799.59 1053.22 826.04 1007.41 799.59 961.59"/><polygon class="cls-2" points="709.49 1014.23 656.59 1014.23 630.14 1060.04 656.59 1105.85 709.49 1105.85 735.94 1060.04 709.49 1014.23"/><polygon class="cls-2" points="979.56 961.59 926.66 961.59 900.21 1007.41 926.66 1053.22 979.56 1053.22 1006.01 1007.41 979.56 961.59"/><polygon class="cls-2" points="889.46 1014.23 836.56 1014.23 810.11 1060.04 836.56 1105.85 889.46 1105.85 915.91 1060.04 889.46 1014.23"/><polygon class="cls-2" points="1163.29 651.14 1110.39 651.14 1083.94 696.96 1110.39 742.77 1163.29 742.77 1189.75 696.96 1163.29 651.14"/><polygon class="cls-2" points="1073.19 601.19 1020.29 601.19 993.84 647 1020.29 692.81 1073.19 692.81 1099.64 647 1073.19 601.19"/><polygon class="cls-1" points="1073.19 703.78 1020.29 703.78 993.84 749.59 1020.29 795.41 1073.19 795.41 1099.64 749.59 1073.19 703.78"/><polygon class="cls-2" points="1345.39 651.14 1292.49 651.14 1266.04 696.96 1292.49 742.77 1345.39 742.77 1371.84 696.96 1345.39 651.14"/><polygon class="cls-2" points="1255.29 601.19 1202.39 601.19 1175.94 647 1202.39 692.81 1255.29 692.81 1281.74 647 1255.29 601.19"/><polygon class="cls-2" points="1255.29 703.78 1202.39 703.78 1175.94 749.59 1202.39 795.41 1255.29 795.41 1281.74 749.59 1255.29 703.78"/><polygon class="cls-2" points="1527.49 547.66 1474.59 547.66 1448.14 593.48 1474.59 639.29 1527.49 639.29 1553.94 593.48 1527.49 547.66"/><polygon class="cls-1" points="1527.49 651.14 1474.59 651.14 1448.14 696.96 1474.59 742.77 1527.49 742.77 1553.94 696.96 1527.49 651.14"/><polygon class="cls-1" points="1437.39 703.78 1384.49 703.78 1358.04 749.59 1384.49 795.41 1437.39 795.41 1463.84 749.59 1437.39 703.78"/><polygon class="cls-2" points="1709.59 651.14 1656.69 651.14 1630.24 696.96 1656.69 742.77 1709.59 742.77 1736.04 696.96 1709.59 651.14"/><polygon class="cls-2" points="1619.49 601.19 1566.59 601.19 1540.14 647 1566.59 692.81 1619.49 692.81 1645.94 647 1619.49 601.19"/><polygon class="cls-1" points="1889.56 547.66 1836.66 547.66 1810.2 593.48 1836.66 639.29 1889.56 639.29 1916.01 593.48 1889.56 547.66"/><polygon class="cls-2" points="1889.56 651.14 1836.66 651.14 1810.2 696.96 1836.66 742.77 1889.56 742.77 1916.01 696.96 1889.56 651.14"/><polygon class="cls-1" points="1799.46 494.14 1746.55 494.14 1720.1 539.95 1746.55 585.76 1799.46 585.76 1825.91 539.95 1799.46 494.14"/><polygon class="cls-2" points="1799.46 703.78 1746.55 703.78 1720.1 749.59 1746.55 795.41 1799.46 795.41 1825.91 749.59 1799.46 703.78"/><polygon class="cls-2" points="1163.29 754.63 1110.39 754.63 1083.94 800.44 1110.39 846.25 1163.29 846.25 1189.75 800.44 1163.29 754.63"/><polygon class="cls-1" points="1073.19 807.26 1020.29 807.26 993.84 853.07 1020.29 898.89 1073.19 898.89 1099.64 853.07 1073.19 807.26"/><polygon class="cls-2" points="1527.49 754.63 1474.59 754.63 1448.14 800.44 1474.59 846.25 1527.49 846.25 1553.94 800.44 1527.49 754.63"/><polygon class="cls-2" points="1437.39 807.26 1384.49 807.26 1358.04 853.07 1384.49 898.89 1437.39 898.89 1463.84 853.07 1437.39 807.26"/><polygon class="cls-2" points="1709.59 754.63 1656.69 754.63 1630.24 800.44 1656.69 846.25 1709.59 846.25 1736.04 800.44 1709.59 754.63"/><polygon class="cls-2" points="1619.49 807.26 1566.59 807.26 1540.14 853.07 1566.59 898.89 1619.49 898.89 1645.94 853.07 1619.49 807.26"/><polygon class="cls-2" points="1889.56 754.63 1836.66 754.63 1810.2 800.44 1836.66 846.25 1889.56 846.25 1916.01 800.44 1889.56 754.63"/><polygon class="cls-2" points="1799.46 807.26 1746.55 807.26 1720.1 853.07 1746.55 898.89 1799.46 898.89 1825.91 853.07 1799.46 807.26"/><polygon class="cls-2" points="1163.29 858.11 1110.39 858.11 1083.94 903.92 1110.39 949.74 1163.29 949.74 1189.75 903.92 1163.29 858.11"/><polygon class="cls-2" points="1073.19 910.74 1020.29 910.74 993.84 956.56 1020.29 1002.37 1073.19 1002.37 1099.64 956.56 1073.19 910.74"/><polygon class="cls-2" points="1345.39 858.11 1292.49 858.11 1266.04 903.92 1292.49 949.74 1345.39 949.74 1371.84 903.92 1345.39 858.11"/><polygon class="cls-2" points="1255.29 910.74 1202.39 910.74 1175.94 956.56 1202.39 1002.37 1255.29 1002.37 1281.74 956.56 1255.29 910.74"/><polygon class="cls-2" points="1437.39 910.74 1384.49 910.74 1358.04 956.56 1384.49 1002.37 1437.39 1002.37 1463.84 956.56 1437.39 910.74"/><polygon class="cls-2" points="1709.59 858.11 1656.69 858.11 1630.24 903.92 1656.69 949.74 1709.59 949.74 1736.04 903.92 1709.59 858.11"/><polygon class="cls-2" points="1619.49 910.74 1566.59 910.74 1540.14 956.56 1566.59 1002.37 1619.49 1002.37 1645.94 956.56 1619.49 910.74"/><polygon class="cls-2" points="1889.56 858.11 1836.66 858.11 1810.2 903.92 1836.66 949.74 1889.56 949.74 1916.01 903.92 1889.56 858.11"/><polygon class="cls-1" points="1799.46 910.74 1746.55 910.74 1720.1 956.56 1746.55 1002.37 1799.46 1002.37 1825.91 956.56 1799.46 910.74"/><polygon class="cls-2" points="1163.29 961.59 1110.39 961.59 1083.94 1007.41 1110.39 1053.22 1163.29 1053.22 1189.75 1007.41 1163.29 961.59"/><polygon class="cls-2" points="1073.19 1014.23 1020.29 1014.23 993.84 1060.04 1020.29 1105.85 1073.19 1105.85 1099.64 1060.04 1073.19 1014.23"/><polygon class="cls-2" points="1345.39 961.59 1292.49 961.59 1266.04 1007.41 1292.49 1053.22 1345.39 1053.22 1371.84 1007.41 1345.39 961.59"/><polygon class="cls-2" points="1255.29 1014.23 1202.39 1014.23 1175.94 1060.04 1202.39 1105.85 1255.29 1105.85 1281.74 1060.04 1255.29 1014.23"/><polygon class="cls-2" points="1527.49 961.59 1474.59 961.59 1448.14 1007.41 1474.59 1053.22 1527.49 1053.22 1553.94 1007.41 1527.49 961.59"/><polygon class="cls-2" points="1437.39 1014.23 1384.49 1014.23 1358.04 1060.04 1384.49 1105.85 1437.39 1105.85 1463.84 1060.04 1437.39 1014.23"/><polygon class="cls-2" points="1709.59 961.59 1656.69 961.59 1630.24 1007.41 1656.69 1053.22 1709.59 1053.22 1736.04 1007.41 1709.59 961.59"/><polygon class="cls-2" points="1619.49 1014.23 1566.59 1014.23 1540.14 1060.04 1566.59 1105.85 1619.49 1105.85 1645.94 1060.04 1619.49 1014.23"/><polygon class="cls-2" points="1889.56 961.59 1836.66 961.59 1810.2 1007.41 1836.66 1053.22 1889.56 1053.22 1916.01 1007.41 1889.56 961.59"/><polygon class="cls-2" points="1799.46 177.56 1746.55 177.56 1720.1 223.37 1746.55 269.19 1799.46 269.19 1825.91 223.37 1799.46 177.56"/><polygon class="cls-2" points="1889.56 435.37 1836.66 435.37 1810.2 481.19 1836.66 527 1889.56 527 1916.01 481.19 1889.56 435.37"/><polygon class="cls-2" points="1799.46 1014.23 1746.55 1014.23 1720.1 1060.04 1746.55 1105.85 1799.46 1105.85 1825.91 1060.04 1799.46 1014.23"/></svg>