<?xml version="1.0" encoding="UTF-8"?><svg id="Layer_1" xmlns="http://www.w3.org/2000/svg" xmlns:xlink="http://www.w3.org/1999/xlink" viewBox="0 0 1920 1080"><defs><style>.cls-1{fill:none;}.cls-2{fill:#f9ed32;}.cls-3{fill:#682f00;}.cls-4{fill:#fff;}.cls-5{fill:#ffe85c;}.cls-6{fill:#d8bda0;}.cls-7,.cls-8{fill:#231f20;}.cls-9{fill:url(#radial-gradient-5);}.cls-10{fill:url(#radial-gradient-3);}.cls-11{fill:url(#radial-gradient-4);}.cls-12{fill:url(#radial-gradient-2);}.cls-8{stroke:#000;stroke-miterlimit:10;}.cls-13{fill:url(#New_Pattern_4);}.cls-14{opacity:.5;}.cls-15{fill:url(#radial-gradient);}.cls-16{fill:#27aae1;opacity:.77;}</style><radialGradient id="radial-gradient" cx="-8888.21" cy="-11714.86" fx="-8888.21" fy="-11714.86" r="7.99" gradientTransform="translate(8500.18 1202.98) rotate(42.57) scale(.73 -.43)" gradientUnits="userSpaceOnUse"><stop offset=".02" stop-color="#ff4d95"/><stop offset="1" stop-color="#ffe85c"/></radialGradient><radialGradient id="radial-gradient-2" cx="-9328.69" cy="-11536.34" fx="-9328.69" fy="-11536.34" r="7.99" gradientTransform="translate(8334.47 1476.13) rotate(42.57) scale(.73 -.43)" xlink:href="#radial-gradient"/><radialGradient id="radial-gradient-3" cx="-8949.39" cy="-11291.51" fx="-8949.39" fy="-11291.51" gradientTransform="translate(8235.48 1078.29) rotate(42.57) scale(.73 -.43)" xlink:href="#radial-gradient"/><radialGradient id="radial-gradient-4" cx="14512.44" cy="-20972.75" fx="14512.44" fy="-20972.75" r="7.99" gradientTransform="translate(14050.3 2068.5) rotate(-132.57) scale(.73 .43)" xlink:href="#radial-gradient"/><radialGradient id="radial-gradient-5" cx="14891.74" cy="-20727.93" fx="14891.74" fy="-20727.93" r="7.99" gradientTransform="translate(13984.96 2054.66) rotate(-132.57) scale(.73 .43)" xlink:href="#radial-gradient"/><pattern id="New_Pattern_4" x="0" y="0" width="350.34" height="576" patternTransform="translate(780 720)" patternUnits="userSpaceOnUse" viewBox="0 0 350.34 576"><g><rect class="cls-1" x="0" width="350.34" height="576"/><g class="cls-14"><g><polygon class="cls-7" points="309.89 522.02 311.54 525.78 313.2 529.54 307.45 529.82 301.7 530.11 305.79 526.06 309.89 522.02"/><path class="cls-16" d="m326.26,482.03c5.13,5.32,3.56,15.17,3.56,15.17,0,0-9.89,1.21-15.02-4.11-5.13-5.32-4.29-9.59-1.12-12.64s7.46-3.73,12.59,1.59Z"/><path class="cls-16" d="m338.45,484.11c-.32,7.39-8.53,13.04-8.53,13.04,0,0-7.7-6.33-7.38-13.72s3.98-9.72,8.38-9.53,7.85,2.83,7.53,10.21Z"/><g><path class="cls-5" d="m312.68,523.47h0c-2.25-5.13-2.59-10.64-1.33-15.72-3.52,5.14-4.41,11.94-1.73,18.03h0c3.17,7.21,10.43,11.41,17.88,11.1-6.4-2.1-11.92-6.8-14.82-13.41Z"/><path class="cls-5" d="m330.29,515.74h0c-2.8-6.37-2.64-13.31-.15-19.29l-10.32,4.53c-2.49,5.98-2.65,12.93.15,19.29h0c3.19,7.26,9.53,12.21,16.73,13.95l10.32-4.53c-7.19-1.74-13.54-6.69-16.73-13.95Z"/><path class="cls-7" d="m319.97,520.27h0c-2.8-6.37-2.64-13.31-.15-19.29l-.64.28c-3.28,1.44-5.93,3.73-7.83,6.49-1.26,5.08-.93,10.59,1.33,15.72h0c2.91,6.61,8.43,11.31,14.82,13.41,2.23-.1,4.48-.59,6.64-1.54l2.55-1.12c-7.19-1.74-13.54-6.69-16.73-13.95Z"/><path class="cls-7" d="m339.02,511.9h0c-2.79-6.36-2.64-13.3-.15-19.28-.12.05-.24.1-.36.15l-8.36,3.67c-2.49,5.98-2.65,12.93.15,19.29h0c3.19,7.26,9.53,12.21,16.73,13.95l6.46-2.84c.71-.31,1.39-.67,2.04-1.06-7.1-1.79-13.34-6.71-16.5-13.89Z"/><path class="cls-5" d="m363.03,502.33h0c-4.06-9.25-14.87-13.55-24.16-9.7-2.49,5.98-2.64,12.92.15,19.28h0c3.16,7.18,9.4,12.1,16.5,13.89,7.93-4.73,11.32-14.81,7.51-23.47Z"/></g><circle class="cls-8" cx="352.87" cy="500.79" r="2.16"/><ellipse class="cls-15" cx="348.4" cy="509.59" rx="5.15" ry="7.8" transform="translate(-258.29 623.62) rotate(-66.29)"/><g><polygon points="349.28 491.67 348.04 491.25 351.7 480.54 352.94 480.96 349.28 491.67"/><circle cx="352.78" cy="479.4" r="3.11"/></g></g><g><path class="cls-3" d="m294.9,537.06l-.67-.9c.33-.24.66-.49.99-.74l.68.89c-.33.25-.67.51-1,.75Z"/><path class="cls-3" d="m181.46,567.02h-.03c-.8,0-1.62,0-2.44-.02l-.02,1.12c.82.01,1.65.02,2.46.02h.03v-1.12Zm4.99,1.04l-.04-1.12c-.81.03-1.64.05-2.47.06l.02,1.12c.84-.01,1.68-.04,2.49-.06Zm4.98-.27l-.09-1.12c-.8.06-1.63.12-2.47.16l.06,1.12c.84-.05,1.68-.1,2.49-.16Zm4.97-.5l-.14-1.11c-.8.1-1.63.2-2.45.28l.11,1.12c.83-.08,1.67-.18,2.48-.28Zm4.94-.78l-.21-1.1c-.79.15-1.61.29-2.43.42l.17,1.11c.83-.13,1.66-.27,2.47-.43Zm4.89-1.1l-.29-1.09c-.78.21-1.59.4-2.39.58l.25,1.1c.82-.18,1.64-.38,2.43-.59Zm4.79-1.47l-.37-1.06c-.77.27-1.56.53-2.34.77l.33,1.07c.8-.24,1.6-.51,2.38-.78Zm4.66-1.84l-.45-1.03c-.76.34-1.53.66-2.27.95l.41,1.04c.76-.3,1.54-.63,2.31-.97Zm4.48-2.14l.03-.02-.51-1-.04.02c-.78.4-1.49.75-2.17,1.08l.49,1.01c.69-.33,1.41-.69,2.2-1.09Zm4.38-2.56l-.62-.94c-.68.45-1.38.89-2.08,1.3l.57.97c.72-.42,1.44-.87,2.14-1.33Zm4.02-3.03l-.73-.85c-.61.52-1.26,1.04-1.91,1.54l.68.9c.67-.51,1.33-1.04,1.96-1.58Zm12.48-1.23c-.82-.01-1.65-.03-2.47-.07l-.05,1.12c.83.03,1.67.06,2.5.07v-1.12Zm5,1.05l-.05-1.12c-.82.04-1.65.06-2.47.07l.02,1.12c.83-.01,1.67-.04,2.5-.07Zm-9.92-1.25c-.82-.06-1.65-.13-2.46-.21l-.11,1.12c.82.08,1.66.15,2.49.21l.08-1.12Zm14.91.89l-.11-1.12c-.82.08-1.64.15-2.46.21l.08,1.12c.83-.06,1.67-.13,2.49-.21Zm-19.83-1.38c-.16-.02-.32-.04-.48-.06.5-.5.99-1.02,1.46-1.54l-.84-.75c-.53.6-1.1,1.19-1.69,1.77l.42.43c-.44-.06-.87-.13-1.3-.2l-.18,1.11c.82.13,1.65.25,2.48.36l.14-1.11Zm24.79.75l-.17-1.11c-.81.13-1.63.24-2.45.35l.14,1.11c.82-.11,1.66-.22,2.48-.35Zm4.92-.91l-.23-1.1c-.8.17-1.62.33-2.42.48l.2,1.1c.82-.15,1.64-.32,2.45-.49Zm-34.58-.62c-.66-.12-1.32-.26-1.97-.4-.15-.03-.3-.07-.45-.1l-.25,1.09c.15.04.31.07.46.1.66.14,1.33.28,1.99.4l.21-1.1Zm39.44-.56l-.29-1.08c-.79.22-1.6.42-2.39.62l.26,1.09c.8-.2,1.62-.41,2.42-.62Zm-44.21-.59c-.77-.25-1.54-.53-2.29-.84l-.43,1.04c.78.32,1.58.62,2.38.87l.34-1.07Zm49-.86l-.35-1.07c-.78.26-1.57.51-2.35.75l.32,1.07c.79-.24,1.6-.49,2.38-.76Zm-53.5-1c-.72-.37-1.44-.77-2.13-1.2l-.59.96c.71.44,1.46.86,2.21,1.24l.51-1Zm18.19-1.82l-.94-.61c-.44.67-.91,1.34-1.41,1.99l.89.68c.52-.67,1.01-1.37,1.46-2.07Zm40.01,1.11l-.41-1.04c-.76.3-1.54.6-2.31.88l.38,1.06c.78-.28,1.57-.58,2.34-.89Zm-62.36-1.85c-.66-.48-1.3-1-1.9-1.52l-.74.85c.63.55,1.29,1.08,1.98,1.58l.66-.9Zm66.95-.12l-.47-1.02c-.74.34-1.5.68-2.26,1.01l.44,1.03c.77-.33,1.53-.67,2.28-1.02Zm4.48-2.23l-.53-.99c-.72.39-1.46.77-2.19,1.13l.5,1.01c.74-.37,1.49-.76,2.22-1.15Zm-46.71-1.38l-1.03-.44c-.31.74-.66,1.48-1.05,2.2l.99.53c.4-.75.77-1.52,1.09-2.29Zm-28.39.52c-.57-.59-1.1-1.21-1.6-1.83l-.88.7c.52.65,1.08,1.3,1.67,1.92l.81-.78Zm79.44-1.63l-.59-.96c-.7.43-1.41.85-2.13,1.26l.56.97c.72-.41,1.45-.84,2.15-1.27Zm-49.55-3.68v-.06s-1.09-.23-1.09-.23v.06c-.17.77-.38,1.54-.61,2.29l1.07.34c.25-.79.46-1.6.63-2.4Zm53.74.94l-.64-.92c-.67.47-1.36.93-2.05,1.38l.61.94c.7-.46,1.4-.93,2.08-1.4Zm-86.63.54c-.44-.69-.83-1.41-1.17-2.12l-1.01.48c.36.75.77,1.5,1.23,2.23l.95-.6Zm-2.07-4.35c-.25-.77-.45-1.56-.58-2.33l-1.11.19c.14.83.35,1.67.62,2.49l1.07-.35Zm35.48-2.25h-1.12c0,.81-.04,1.63-.12,2.43l1.12.11c.08-.84.13-1.69.13-2.54Zm-.12-2.54c-.08-.84-.21-1.68-.37-2.51l-1.1.22c.16.79.28,1.6.35,2.4l1.12-.11Zm-36.15.07c0-.05,0-.11,0-.16,0-.74.06-1.49.17-2.23l-1.11-.17c-.12.79-.19,1.6-.19,2.4,0,.06,0,.11,0,.17h1.12Zm1.66-6.93l-1-.51c-.4.77-.73,1.57-.99,2.37l1.07.35c.25-.75.56-1.49.93-2.21Zm33.51,1.87c-.24-.81-.53-1.62-.85-2.39l-1.04.43c.31.74.58,1.51.81,2.29l1.08-.32Zm-30.76-5.82l-.83-.75c-.58.65-1.12,1.32-1.59,1.99l.92.64c.45-.64.96-1.28,1.51-1.89Zm28.82,1.13c-.41-.75-.86-1.49-1.33-2.17l-.92.64c.45.65.88,1.35,1.27,2.07l.99-.53Zm-25.23-4.4l-.68-.89c-.69.52-1.34,1.07-1.95,1.62l.75.83c.58-.53,1.21-1.05,1.88-1.55Zm22.32.22c-.58-.65-1.19-1.25-1.83-1.79l-.73.85c.6.51,1.18,1.08,1.72,1.68l.84-.75Zm-18.2-2.78l-.48-1.01c-.74.35-1.49.77-2.23,1.23l.6.95c.7-.44,1.41-.83,2.12-1.17Zm14.3-.53c-.74-.46-1.51-.85-2.3-1.17l-.42,1.04c.73.29,1.44.66,2.13,1.08l.59-.96Zm-9.74-.92l-.17-1.11c-.83.13-1.67.33-2.5.6l.34,1.07c.78-.25,1.56-.44,2.33-.56Zm4.97-1c-.84-.17-1.7-.27-2.57-.29l-.02,1.12c.79.02,1.59.11,2.36.26l.23-1.1Z"/><path class="cls-3" d="m176.42,568.07c-.41-.01-.83-.03-1.25-.04l.04-1.12c.42.02.83.03,1.24.04l-.03,1.12Z"/></g></g><g class="cls-14"><g><g><path class="cls-7" d="m-11.32,511.9h0c-2.79-6.36-2.64-13.3-.15-19.28-.12.05-.24.1-.36.15l-8.36,3.67c-2.49,5.98-2.65,12.93.15,19.29h0c3.19,7.26,9.53,12.21,16.73,13.95l6.46-2.84c.71-.31,1.39-.67,2.04-1.06-7.1-1.79-13.34-6.71-16.5-13.89Z"/><path class="cls-5" d="m12.69,502.33h0c-4.06-9.25-14.87-13.55-24.16-9.7-2.49,5.98-2.64,12.92.15,19.28h0c3.16,7.18,9.4,12.1,16.5,13.89,7.93-4.73,11.32-14.81,7.51-23.47Z"/></g><circle class="cls-8" cx="2.53" cy="500.79" r="2.16"/><ellipse class="cls-12" cx="-1.95" cy="509.59" rx="5.15" ry="7.8" transform="translate(-467.73 302.86) rotate(-66.29)"/><g><polygon points="-1.06 491.67 -2.3 491.25 1.36 480.54 2.6 480.96 -1.06 491.67"/><circle cx="2.44" cy="479.4" r="3.11"/></g></g></g><g><g class="cls-14"><g><polygon class="cls-7" points="134.72 234.02 136.37 237.78 138.02 241.54 132.28 241.82 126.53 242.11 130.62 238.06 134.72 234.02"/><path class="cls-16" d="m151.09,194.03c5.13,5.32,3.56,15.17,3.56,15.17,0,0-9.89,1.21-15.02-4.11-5.13-5.32-4.29-9.59-1.12-12.64s7.46-3.73,12.59,1.59Z"/><path class="cls-16" d="m163.28,196.11c-.32,7.39-8.53,13.04-8.53,13.04,0,0-7.7-6.33-7.38-13.72.32-7.39,3.98-9.72,8.38-9.53s7.85,2.83,7.53,10.21Z"/><g><path class="cls-5" d="m137.51,235.47h0c-2.25-5.13-2.59-10.64-1.33-15.72-3.52,5.14-4.41,11.94-1.73,18.03h0c3.17,7.21,10.43,11.41,17.88,11.1-6.4-2.1-11.92-6.8-14.82-13.41Z"/><path class="cls-5" d="m155.11,227.74h0c-2.8-6.37-2.64-13.31-.15-19.29l-10.32,4.53c-2.49,5.98-2.65,12.93.15,19.29h0c3.19,7.26,9.53,12.21,16.73,13.95l10.32-4.53c-7.19-1.74-13.54-6.69-16.73-13.95Z"/><path class="cls-7" d="m144.8,232.27h0c-2.8-6.37-2.64-13.31-.15-19.29l-.64.28c-3.28,1.44-5.93,3.73-7.83,6.49-1.26,5.08-.93,10.59,1.33,15.72h0c2.91,6.61,8.43,11.31,14.82,13.41,2.23-.1,4.48-.59,6.64-1.54l2.55-1.12c-7.19-1.74-13.54-6.69-16.73-13.95Z"/><path class="cls-7" d="m163.85,223.9h0c-2.79-6.36-2.64-13.3-.15-19.28-.12.05-.24.1-.36.15l-8.36,3.67c-2.49,5.98-2.65,12.93.15,19.29h0c3.19,7.26,9.53,12.21,16.73,13.95l6.46-2.84c.71-.31,1.39-.67,2.04-1.06-7.1-1.79-13.34-6.71-16.5-13.89Z"/><path class="cls-5" d="m187.86,214.33h0c-4.06-9.25-14.87-13.55-24.16-9.7-2.49,5.98-2.64,12.92.15,19.28h0c3.16,7.18,9.4,12.1,16.5,13.89,7.93-4.73,11.32-14.81,7.51-23.47Z"/></g><circle class="cls-8" cx="177.7" cy="212.79" r="2.16"/><ellipse class="cls-10" cx="173.23" cy="221.59" rx="5.15" ry="7.8" transform="translate(-99.32 291.07) rotate(-66.29)"/><g><polygon points="174.11 203.67 172.87 203.25 176.53 192.54 177.77 192.96 174.11 203.67"/><circle cx="177.61" cy="191.4" r="3.11"/></g></g><g><path class="cls-3" d="m119.73,249.06l-.67-.9c.33-.24.66-.49.99-.74l.68.89c-.33.25-.67.51-1,.75Z"/><path class="cls-3" d="m6.29,279.02h-.03c-.8,0-1.62,0-2.44-.02l-.02,1.12c.82.01,1.65.02,2.46.02h.03v-1.12Zm4.99,1.04l-.04-1.12c-.81.03-1.64.05-2.47.06l.02,1.12c.84-.01,1.68-.04,2.49-.06Zm4.98-.27l-.09-1.12c-.8.06-1.63.12-2.47.16l.06,1.12c.84-.05,1.68-.1,2.49-.16Zm4.97-.5l-.14-1.11c-.8.1-1.63.2-2.45.28l.11,1.12c.83-.08,1.67-.18,2.48-.28Zm4.94-.78l-.21-1.1c-.79.15-1.61.29-2.43.42l.17,1.11c.83-.13,1.66-.27,2.47-.43Zm4.89-1.1l-.29-1.09c-.78.21-1.59.4-2.39.58l.25,1.1c.82-.18,1.64-.38,2.43-.59Zm4.79-1.47l-.37-1.06c-.77.27-1.56.53-2.34.77l.33,1.07c.8-.24,1.6-.51,2.38-.78Zm4.66-1.84l-.45-1.03c-.76.34-1.53.66-2.27.95l.41,1.04c.76-.3,1.54-.63,2.31-.97Zm4.48-2.14l.03-.02-.51-1-.04.02c-.78.4-1.49.75-2.17,1.08l.49,1.01c.69-.33,1.41-.69,2.2-1.09Zm4.38-2.56l-.62-.94c-.68.45-1.38.89-2.08,1.3l.57.97c.72-.42,1.44-.87,2.14-1.33Zm4.02-3.03l-.73-.85c-.61.52-1.26,1.04-1.91,1.54l.68.9c.67-.51,1.33-1.04,1.96-1.58Zm12.48-1.23c-.82-.01-1.65-.03-2.47-.07l-.05,1.12c.83.03,1.67.06,2.5.07v-1.12Zm5,1.05l-.05-1.12c-.82.04-1.65.06-2.47.07l.02,1.12c.83-.01,1.67-.04,2.5-.07Zm-9.92-1.25c-.82-.06-1.65-.13-2.46-.21l-.11,1.12c.82.08,1.66.15,2.49.21l.08-1.12Zm14.91.89l-.11-1.12c-.82.08-1.64.15-2.46.21l.08,1.12c.83-.06,1.67-.13,2.49-.21Zm-19.83-1.38c-.16-.02-.32-.04-.48-.06.5-.5.99-1.02,1.46-1.54l-.84-.75c-.53.6-1.1,1.19-1.69,1.77l.42.43c-.44-.06-.87-.13-1.3-.2l-.18,1.11c.82.13,1.65.25,2.48.36l.14-1.11Zm24.79.75l-.17-1.11c-.81.13-1.63.24-2.45.35l.14,1.11c.82-.11,1.66-.22,2.48-.35Zm4.92-.91l-.23-1.1c-.8.17-1.62.33-2.42.48l.2,1.1c.82-.15,1.64-.32,2.45-.49Zm-34.58-.62c-.66-.12-1.32-.26-1.97-.4-.15-.03-.3-.07-.45-.1l-.25,1.09c.15.04.31.07.46.1.66.14,1.33.28,1.99.4l.21-1.1Zm39.44-.56l-.29-1.08c-.79.22-1.6.42-2.39.62l.26,1.09c.8-.2,1.62-.41,2.42-.62Zm-44.21-.59c-.77-.25-1.54-.53-2.29-.84l-.43,1.04c.78.32,1.58.62,2.38.87l.34-1.07Zm49-.86l-.35-1.07c-.78.26-1.57.51-2.35.75l.32,1.07c.79-.24,1.6-.49,2.38-.76Zm-53.5-1c-.72-.37-1.44-.77-2.13-1.2l-.59.96c.71.44,1.46.86,2.21,1.24l.51-1Zm18.19-1.82l-.94-.61c-.44.67-.91,1.34-1.41,1.99l.89.68c.52-.67,1.01-1.37,1.46-2.07Zm40.01,1.11l-.41-1.04c-.76.3-1.54.6-2.31.88l.38,1.06c.78-.28,1.57-.58,2.34-.89Zm-62.36-1.85c-.66-.48-1.3-1-1.9-1.52l-.74.85c.63.55,1.29,1.08,1.98,1.58l.66-.9Zm66.95-.12l-.47-1.02c-.74.34-1.5.68-2.26,1.01l.44,1.03c.77-.33,1.53-.67,2.28-1.02Zm4.48-2.23l-.53-.99c-.72.39-1.46.77-2.19,1.13l.5,1.01c.74-.37,1.49-.76,2.22-1.15Zm-46.71-1.38l-1.03-.44c-.31.74-.66,1.48-1.05,2.2l.99.53c.4-.75.77-1.52,1.09-2.29Zm-28.39.52c-.57-.59-1.1-1.21-1.6-1.83l-.88.7c.52.65,1.08,1.3,1.67,1.92l.81-.78Zm79.44-1.63l-.59-.96c-.7.43-1.41.85-2.13,1.26l.56.97c.72-.41,1.45-.84,2.15-1.27Zm-49.55-3.68v-.06s-1.09-.23-1.09-.23v.06c-.17.77-.38,1.54-.61,2.29l1.07.34c.25-.79.46-1.6.63-2.4Zm53.74.94l-.64-.92c-.67.47-1.36.93-2.05,1.38l.61.94c.7-.46,1.4-.93,2.08-1.4Zm-86.63.54c-.44-.69-.83-1.41-1.17-2.12l-1.01.48c.36.75.77,1.5,1.23,2.23l.95-.6Zm-2.07-4.35c-.25-.77-.45-1.56-.58-2.33l-1.11.19c.14.83.35,1.67.62,2.49l1.07-.35Zm35.48-2.25h-1.12c0,.81-.04,1.63-.12,2.43l1.12.11c.08-.84.13-1.69.13-2.54Zm-.12-2.54c-.08-.84-.21-1.68-.37-2.51l-1.1.22c.16.79.28,1.6.35,2.4l1.12-.11Zm-36.15.07c0-.05,0-.11,0-.16,0-.74.06-1.49.17-2.23l-1.11-.17c-.12.79-.19,1.6-.19,2.4,0,.06,0,.11,0,.17h1.12Zm1.66-6.93l-1-.51c-.4.77-.73,1.57-.99,2.37l1.07.35c.25-.75.56-1.49.93-2.21Zm33.51,1.87c-.24-.81-.53-1.62-.85-2.39l-1.04.43c.31.74.58,1.51.81,2.29l1.08-.32Zm-30.76-5.82l-.83-.75c-.58.65-1.12,1.32-1.59,1.99l.92.64c.45-.64.96-1.28,1.51-1.89Zm28.82,1.13c-.41-.75-.86-1.49-1.33-2.17l-.92.64c.45.65.88,1.35,1.27,2.07l.99-.53Zm-25.23-4.4l-.68-.89c-.69.52-1.34,1.07-1.95,1.62l.75.83c.58-.53,1.21-1.05,1.88-1.55Zm22.32.22c-.58-.65-1.19-1.25-1.83-1.79l-.73.85c.6.51,1.18,1.08,1.72,1.68l.84-.75Zm-18.2-2.78l-.48-1.01c-.74.35-1.49.77-2.23,1.23l.6.95c.7-.44,1.41-.83,2.12-1.17Zm14.3-.53c-.74-.46-1.51-.85-2.3-1.17l-.42,1.04c.73.29,1.44.66,2.13,1.08l.59-.96Zm-9.74-.92l-.17-1.11c-.83.13-1.67.33-2.5.6l.34,1.07c.78-.25,1.56-.44,2.33-.56Zm4.97-1c-.84-.17-1.7-.27-2.57-.29l-.02,1.12c.79.02,1.59.11,2.36.26l.23-1.1Z"/><path class="cls-3" d="m1.25,280.07c-.41-.01-.83-.03-1.25-.04l.04-1.12c.42.02.83.03,1.24.04l-.03,1.12Z"/></g></g><g class="cls-14"><polygon class="cls-7" points="342.15 358.43 340.5 362.19 338.84 365.95 344.59 366.23 350.34 366.52 346.25 362.47 342.15 358.43"/><path class="cls-16" d="m325.78,318.44c-5.13,5.32-3.56,15.17-3.56,15.17,0,0,9.89,1.21,15.02-4.11s4.29-9.59,1.12-12.64c-3.17-3.05-7.46-3.73-12.59,1.59Z"/><path class="cls-16" d="m313.59,320.52c.32,7.39,8.53,13.04,8.53,13.04,0,0,7.7-6.33,7.38-13.72-.32-7.39-3.98-9.72-8.38-9.53s-7.85,2.83-7.53,10.21Z"/><g><path class="cls-5" d="m339.36,359.88h0c2.25-5.13,2.59-10.64,1.33-15.72,3.52,5.14,4.41,11.94,1.73,18.03h0c-3.17,7.21-10.43,11.41-17.88,11.1,6.4-2.1,11.92-6.8,14.82-13.41Z"/><path class="cls-5" d="m321.75,352.15h0c2.8-6.37,2.64-13.31.15-19.29l10.32,4.53c2.49,5.98,2.65,12.93-.15,19.29h0c-3.19,7.26-9.53,12.21-16.73,13.95l-10.32-4.53c7.19-1.74,13.54-6.69,16.73-13.95Z"/><path class="cls-7" d="m332.07,356.68h0c2.8-6.37,2.64-13.31.15-19.29l.64.28c3.28,1.44,5.93,3.73,7.83,6.49,1.26,5.08.93,10.59-1.33,15.72h0c-2.91,6.61-8.43,11.31-14.82,13.41-2.23-.1-4.48-.59-6.64-1.54l-2.55-1.12c7.19-1.74,13.54-6.69,16.73-13.95Z"/><path class="cls-7" d="m313.02,348.31h0c2.79-6.36,2.64-13.3.15-19.28.12.05.24.1.36.15l8.36,3.67c2.49,5.98,2.65,12.93-.15,19.29h0c-3.19,7.26-9.53,12.21-16.73,13.95l-6.46-2.84c-.71-.31-1.39-.67-2.04-1.06,7.1-1.79,13.34-6.71,16.5-13.89Z"/><path class="cls-5" d="m289.01,338.74h0c4.06-9.25,14.87-13.55,24.16-9.7,2.49,5.98,2.64,12.92-.15,19.28h0c-3.16,7.18-9.4,12.1-16.5,13.89-7.93-4.73-11.32-14.81-7.51-23.47Z"/></g><circle class="cls-8" cx="299.17" cy="337.2" r="2.16"/><ellipse class="cls-11" cx="303.64" cy="346" rx="7.8" ry="5.15" transform="translate(-113.52 151.34) rotate(-23.71)"/><g><polygon points="302.76 328.08 304 327.66 300.34 316.95 299.1 317.37 302.76 328.08"/><circle cx="299.26" cy="315.81" r="3.11"/></g></g><g class="cls-14"><ellipse class="cls-4" cx="166.45" cy="346.99" rx="4.5" ry="12.16"/><ellipse class="cls-4" cx="177.86" cy="351.96" rx="4.5" ry="12.16" transform="translate(-200.85 242) rotate(-47)"/><ellipse class="cls-4" cx="182.02" cy="363.69" rx="12.16" ry="4.5" transform="translate(-24.93 13.58) rotate(-4)"/><ellipse class="cls-4" cx="176.27" cy="374.73" rx="12.16" ry="4.5" transform="translate(-225.88 275.89) rotate(-51)"/><ellipse class="cls-4" cx="164.28" cy="378.05" rx="4.5" ry="12.16" transform="translate(-51.02 26.54) rotate(-8)"/><ellipse class="cls-4" cx="153.66" cy="371.55" rx="4.5" ry="12.16" transform="translate(-238.83 284.31) rotate(-55)"/><ellipse class="cls-4" cx="151.18" cy="359.36" rx="12.16" ry="4.5" transform="translate(-71.41 39.29) rotate(-12)"/><ellipse class="cls-4" cx="158.41" cy="349.22" rx="12.16" ry="4.5" transform="translate(-222.52 305.14) rotate(-59)"/><circle class="cls-2" cx="166.45" cy="362.6" r="5.33"/></g></g><g class="cls-14"><ellipse class="cls-4" cx="341.62" cy="58.99" rx="4.5" ry="12.16"/><ellipse class="cls-4" cx="353.03" cy="63.96" rx="4.5" ry="12.16" transform="translate(65.49 278.53) rotate(-47)"/><ellipse class="cls-4" cx="357.19" cy="75.69" rx="12.16" ry="4.5" transform="translate(-4.41 25.1) rotate(-4)"/><ellipse class="cls-4" cx="351.44" cy="86.73" rx="12.16" ry="4.5" transform="translate(62.87 305.27) rotate(-51)"/><ellipse class="cls-4" cx="339.45" cy="90.05" rx="4.5" ry="12.16" transform="translate(-9.23 48.12) rotate(-8)"/><ellipse class="cls-4" cx="328.83" cy="83.55" rx="4.5" ry="12.16" transform="translate(71.78 304.99) rotate(-55)"/><ellipse class="cls-4" cx="326.35" cy="71.36" rx="12.16" ry="4.5" transform="translate(-7.7 69.41) rotate(-12)"/><ellipse class="cls-4" cx="333.58" cy="61.22" rx="12.16" ry="4.5" transform="translate(109.3 315.63) rotate(-59)"/><circle class="cls-2" cx="341.62" cy="74.6" r="5.33"/></g><g><g class="cls-14"><polygon class="cls-7" points="166.98 70.43 165.32 74.19 163.67 77.95 169.42 78.23 175.17 78.52 171.07 74.47 166.98 70.43"/><path class="cls-16" d="m150.61,30.44c-5.13,5.32-3.56,15.17-3.56,15.17,0,0,9.89,1.21,15.02-4.11s4.29-9.59,1.12-12.64c-3.17-3.05-7.46-3.73-12.59,1.59Z"/><path class="cls-16" d="m138.42,32.52c.32,7.39,8.53,13.04,8.53,13.04,0,0,7.7-6.33,7.38-13.72-.32-7.39-3.98-9.72-8.38-9.53s-7.85,2.83-7.53,10.21Z"/><g><path class="cls-5" d="m164.19,71.88h0c2.25-5.13,2.59-10.64,1.33-15.72,3.52,5.14,4.41,11.94,1.73,18.03h0c-3.17,7.21-10.43,11.41-17.88,11.1,6.4-2.1,11.92-6.8,14.82-13.41Z"/><path class="cls-5" d="m146.58,64.15h0c2.8-6.37,2.64-13.31.15-19.29l10.32,4.53c2.49,5.98,2.65,12.93-.15,19.29h0c-3.19,7.26-9.53,12.21-16.73,13.95l-10.32-4.53c7.19-1.74,13.54-6.69,16.73-13.95Z"/><path class="cls-7" d="m156.9,68.68h0c2.8-6.37,2.64-13.31.15-19.29l.64.28c3.28,1.44,5.93,3.73,7.83,6.49,1.26,5.08.93,10.59-1.33,15.72h0c-2.91,6.61-8.43,11.31-14.82,13.41-2.23-.1-4.48-.59-6.64-1.54l-2.55-1.12c7.19-1.74,13.54-6.69,16.73-13.95Z"/><path class="cls-7" d="m137.85,60.31h0c2.79-6.36,2.64-13.3.15-19.28.12.05.24.1.36.15l8.36,3.67c2.49,5.98,2.65,12.93-.15,19.29h0c-3.19,7.26-9.53,12.21-16.73,13.95l-6.46-2.84c-.71-.31-1.39-.67-2.04-1.06,7.1-1.79,13.34-6.71,16.5-13.89Z"/><path class="cls-5" d="m113.84,50.74h0c4.06-9.25,14.87-13.55,24.16-9.7,2.49,5.98,2.64,12.92-.15,19.28h0c-3.16,7.18-9.4,12.1-16.5,13.89-7.93-4.73-11.32-14.81-7.51-23.47Z"/></g><circle class="cls-8" cx="124" cy="49.2" r="2.16"/><ellipse class="cls-9" cx="128.47" cy="58" rx="7.8" ry="5.15" transform="translate(-12.48 56.57) rotate(-23.71)"/><g><polygon points="127.59 40.08 128.83 39.66 125.16 28.95 123.93 29.37 127.59 40.08"/><circle cx="124.08" cy="27.81" r="3.11"/></g></g><g class="cls-14"><ellipse class="cls-4" cx="2.69" cy="63.96" rx="4.5" ry="12.16" transform="translate(-45.92 22.31) rotate(-47)"/><ellipse class="cls-4" cx="6.84" cy="75.69" rx="12.16" ry="4.5" transform="translate(-5.26 .66) rotate(-4)"/><ellipse class="cls-4" cx="1.1" cy="86.73" rx="12.16" ry="4.5" transform="translate(-66.99 33) rotate(-51)"/></g></g></g></pattern></defs><rect class="cls-6" width="1920" height="1080"/><rect class="cls-13" width="1920" height="1080"/></svg>